<svg width="118" height="31" viewBox="0 0 118 31" fill="none" xmlns="http://www.w3.org/2000/svg">
<g clip-path="url(#clip0_1028_3)">
<path d="M69.6338 29.7596C68.4522 29.7616 67.4905 29.5644 66.7486 29.1683C66.0174 28.7721 65.4525 28.209 65.0538 27.4793C64.6657 26.7388 64.3957 25.853 64.2435 24.822C64.1021 23.791 64.0303 22.6471 64.0281 21.3903L64.0131 12.6407C64.0112 11.5128 64.1061 10.4814 64.2979 9.54649C64.4896 8.61159 64.7997 7.80539 65.2282 7.1279C65.6676 6.45038 66.2575 5.92838 66.998 5.56186C67.7386 5.19536 68.6568 5.01116 69.7525 5.00928C70.8697 5.00735 71.783 5.19378 72.4927 5.56854C73.2023 5.93255 73.7457 6.45798 74.1229 7.14483C74.5107 7.82093 74.7806 8.63687 74.9327 9.59267C75.0847 10.5378 75.1617 11.5903 75.1637 12.7505L75.172 17.5683L67.7599 17.5811L67.7681 22.3668C67.7705 23.7418 67.869 24.8104 68.0636 25.5727C68.269 26.3351 68.8122 26.7156 69.6931 26.714C70.2732 26.7131 70.6864 26.535 70.9329 26.1801C71.1901 25.8145 71.345 25.3093 71.3976 24.6647C71.4502 24.0093 71.4758 23.252 71.4743 22.3926L71.4708 20.3623L75.1285 20.356L75.1304 21.5001C75.1326 22.7676 75.0701 23.9118 74.9429 24.9325C74.8158 25.9532 74.5649 26.8238 74.1901 27.5441C73.8262 28.2537 73.2792 28.8026 72.5494 29.1905C71.8196 29.5678 70.8477 29.7575 69.6338 29.7596ZM67.7398 15.2286L71.4619 15.2222L71.4566 12.1284C71.4551 11.2368 71.4162 10.485 71.34 9.87276C71.2744 9.24983 71.1232 8.7828 70.8863 8.47169C70.6495 8.16057 70.2678 8.00546 69.7415 8.00637C69.1399 8.0074 68.6945 8.19079 68.4051 8.55652C68.1156 8.92225 67.9285 9.42209 67.8437 10.056C67.7696 10.6899 67.7332 11.4205 67.7346 12.2476L67.7398 15.2286Z" fill="white"/>
<path d="M53.0421 29.4735L53.0005 5.30359L56.7227 5.29719L56.7273 7.98811C57.005 7.05306 57.4872 6.32176 58.1738 5.79421C58.871 5.26665 59.7569 5.00193 60.8311 5.00009C60.8526 5.00005 60.8636 5.16117 60.8641 5.48343C60.8754 5.79493 60.8814 6.15479 60.8821 6.56299C60.8828 6.97119 60.8834 7.33643 60.884 7.65869C60.8845 7.98096 60.8848 8.14209 60.8848 8.14209C60.3799 8.14296 59.8537 8.20294 59.306 8.32205C58.7691 8.44114 58.2699 8.64072 57.8085 8.92082C57.3578 9.19014 56.9985 9.556 56.7308 10.0184L56.7642 29.4671L53.0421 29.4735Z" fill="white"/>
<path d="M32.6865 29.1445L32.6449 4.97467L36.351 4.9683L36.3556 7.61087C36.569 6.83706 37.0245 6.15415 37.7217 5.56213C38.4188 4.95937 39.2616 4.65714 40.2499 4.65544C41.5389 4.65323 42.5227 5.09734 43.2009 5.98777C43.8899 6.87819 44.236 8.19889 44.239 9.94986L44.272 29.1246L40.5659 29.131L40.5331 10.0851C40.5318 9.29022 40.3536 8.6997 39.9984 8.31359C39.6432 7.91674 39.1756 7.71881 38.5955 7.71981C38.1551 7.72057 37.7632 7.82866 37.4197 8.0441C37.0764 8.25953 36.8137 8.57688 36.6319 8.99614C36.45 9.40465 36.3595 9.91507 36.3606 10.5274L36.3926 29.1382L32.6865 29.1445Z" fill="#C7A17A"/>
<path d="M20.6885 29.4547C19.5068 29.4568 18.5451 29.2596 17.8032 28.8635C17.072 28.4673 16.5072 27.9042 16.1084 27.1745C15.7204 26.434 15.4503 25.5481 15.2981 24.5172C15.1568 23.4861 15.085 22.3423 15.0828 21.0855L15.0678 12.3359C15.0659 11.208 15.1608 10.1766 15.3525 9.24168C15.5443 8.30678 15.8544 7.50058 16.2829 6.82309C16.7222 6.14557 17.3121 5.62357 18.0526 5.25705C18.7933 4.89055 19.7114 4.70635 20.8071 4.70447C21.9243 4.70255 22.8377 4.88897 23.5473 5.26373C24.257 5.62774 24.8003 6.15317 25.1775 6.84003C25.5653 7.51612 25.8353 8.33206 25.9874 9.28786C26.1394 10.2329 26.2164 11.2855 26.2184 12.4457L26.2267 17.2635L18.8146 17.2763L18.8228 22.0619C18.8252 23.4369 18.9236 24.5056 19.1183 25.2679C19.3237 26.0303 19.8669 26.4108 20.7477 26.4092C21.3278 26.4082 21.7411 26.2302 21.9876 25.8753C22.2447 25.5097 22.3996 25.0045 22.4522 24.3599C22.5048 23.7045 22.5303 22.9472 22.5289 22.0878L22.5254 20.0575L26.1831 20.0512L26.185 21.1953C26.1872 22.4628 26.1248 23.607 25.9976 24.6277C25.8705 25.6484 25.6195 26.519 25.2447 27.2393C24.8807 27.9489 24.3339 28.4978 23.6041 28.8857C22.8742 29.263 21.9024 29.4527 20.6885 29.4547ZM18.7943 14.9238L22.5165 14.9174L22.5112 11.8236C22.5097 10.932 22.4708 10.1802 22.3945 9.56795C22.3291 8.94503 22.1779 8.47799 21.9409 8.16688C21.7041 7.85576 21.3225 7.70065 20.7961 7.70156C20.1945 7.70259 19.749 7.88598 19.4597 8.25171C19.1703 8.61745 18.9832 9.11728 18.8983 9.75121C18.8241 10.3851 18.7878 11.1157 18.7892 11.9428L18.7943 14.9238Z" fill="#C7A17A"/>
<path d="M0.112353 29.201L0.106702 25.9139L5.93428 4.0059L0.600793 4.01507L0.595336 0.840761L9.82823 0.824888L9.8333 3.77362L4.0063 26.02L9.74262 26.0101L9.74808 29.1844L0.112353 29.201Z" fill="#C7A17A"/>
<path d="M102.302 29.8731C103.007 29.8719 103.661 29.6935 104.266 29.338C104.871 28.9717 105.348 28.364 105.699 27.5147L105.703 29.6417L109.5 29.6352L109.451 1.00189L105.654 1.00842L105.664 7.3087C105.443 6.64306 105.03 6.12278 104.423 5.74784C103.807 5.37293 103.173 5.18603 102.524 5.18715C101.258 5.17858 100.29 5.50251 99.62 6.15893C98.9497 6.81537 98.4889 7.71313 98.2378 8.85223C97.9866 9.9806 97.8622 11.2645 97.8647 12.7039L97.8813 22.388C97.8838 23.806 98.0125 25.0841 98.2677 26.2224C98.5117 27.3498 98.9535 28.2407 99.593 28.8949C100.221 29.549 101.125 29.8752 102.302 29.8731ZM103.568 26.8739C102.765 26.8645 102.252 26.484 102.031 25.7325C101.81 24.9702 101.697 23.7995 101.695 22.2204L101.678 12.4074C101.676 11.5802 101.714 10.855 101.79 10.2319C101.866 9.6087 102.03 9.12501 102.282 8.78083C102.535 8.4259 102.936 8.24796 103.487 8.24702C103.96 8.2462 104.362 8.35293 104.693 8.56722C105.012 8.78151 105.255 9.18929 105.421 9.79057C105.587 10.3918 105.671 11.2672 105.673 12.4166L105.69 22.2779C105.693 23.7818 105.563 24.9261 105.3 25.7107C105.037 26.4846 104.46 26.8723 103.568 26.8739Z" fill="white"/>
<path d="M85.4676 30.1564C86.1719 30.1552 86.8266 29.9632 87.4312 29.5807C88.0359 29.1867 88.5136 28.5328 88.8641 27.6189L88.8681 29.9078L92.6653 29.9012L92.5069 5.0077L89.0068 5.00722L89.0273 7.70454C89.0273 7.70454 88.507 6.08329 87.5069 5.54512C86.89 5.1416 86.0069 5.00688 85.5069 5.00681C84.5069 5.00668 83.1311 5.41093 82.507 6.08251C81.5071 7.15846 81.717 7.24491 81.5072 7.69646C81.2974 8.14802 81.0251 10.1313 81.0278 11.6802L81.0457 22.1012C81.0483 23.627 81.1772 25.0024 81.4325 26.2273C81.6767 27.4406 82.1187 28.3993 82.7582 29.1033C83.3867 29.8073 84.29 30.1584 85.4676 30.1564ZM86.7332 26.929C85.9299 26.9189 85.4172 26.5094 85.1958 25.7006C84.9743 24.8803 84.862 23.6205 84.859 21.9212L84.8579 12.9389C84.858 12.9599 84.8564 12.0487 84.8579 12.9389C84.8579 12.2544 84.9272 10.6109 85.0076 10.3871C85.2506 9.71068 85.9772 9.17374 86.5275 9.17279C87.0007 9.17198 87.697 9.48041 88.0276 9.71103C88.4627 10.2491 88.6504 10.6782 88.8166 11.3253C88.8167 11.9908 88.8147 11.7026 88.8168 12.9394L88.8545 21.9837C88.8572 23.602 88.7273 24.8334 88.4646 25.6776C88.2019 26.5104 87.6247 26.9275 86.7332 26.929Z" fill="white"/>
<path d="M85.4676 30.1564C86.1719 30.1552 86.8266 29.9632 87.4312 29.5807C88.0359 29.1867 88.5136 28.5328 88.8641 27.6189L88.8681 29.9078L92.6653 29.9012L92.5069 5.0077L89.0068 5.00722L89.0273 7.70454C89.0273 7.70454 88.507 6.08329 87.5069 5.54512C86.89 5.1416 86.0069 5.00688 85.5069 5.00681C84.5069 5.00668 83.1311 5.41093 82.507 6.08251C81.5071 7.15846 81.717 7.24491 81.5072 7.69646C81.2974 8.14802 81.0251 10.1313 81.0278 11.6802L81.0457 22.1012C81.0483 23.627 81.1772 25.0024 81.4325 26.2273C81.6767 27.4406 82.1187 28.3993 82.7582 29.1033C83.3867 29.8073 84.29 30.1584 85.4676 30.1564ZM86.7332 26.929C85.9299 26.9189 85.4172 26.5094 85.1958 25.7006C84.9743 24.8803 84.862 23.6205 84.859 21.9212L84.8579 12.9389C84.858 12.9599 84.8564 12.0487 84.8579 12.9389C84.8579 12.2544 84.9272 10.6109 85.0076 10.3871C85.2506 9.71068 85.9772 9.17374 86.5275 9.17279C87.0007 9.17198 87.697 9.48041 88.0276 9.71103C88.4627 10.2491 88.6504 10.6782 88.8166 11.3253C88.8167 11.9908 88.8147 11.7026 88.8168 12.9394L88.8545 21.9837C88.8572 23.602 88.7273 24.8334 88.4646 25.6776C88.2019 26.5104 87.6247 26.9275 86.7332 26.929Z" fill="white" fill-opacity="0.2"/>
</g>
<defs>
<clipPath id="clip0_1028_3">
<rect width="117" height="30" fill="white" transform="translate(0 0.201172) rotate(-0.0985016)"/>
</clipPath>
</defs>
</svg>
