<svg width="126" height="23" viewBox="0 0 126 23" fill="none" xmlns="http://www.w3.org/2000/svg">
<g clip-path="url(#clip0_73_4)">
<path d="M0.745605 11.0024H45.4793" stroke="white" stroke-width="0.975064" stroke-miterlimit="10" stroke-linecap="round"/>
<path d="M125.251 10.9541H80.5176" stroke="white" stroke-width="0.975064" stroke-miterlimit="10" stroke-linecap="round"/>
<path d="M76 1.3382V18.8371C76 18.8371 72.1103 18.6563 69.7381 19.2175C67.4788 19.7519 64.3111 21.5 64.3111 21.5V4.38149C64.3111 4.38149 65.981 2.09895 69.7381 1.33812C73.4952 0.577299 76 1.3382 76 1.3382Z" fill="white" stroke="white"/>
<path d="M51 1.3382V18.8371C51 18.8371 54.8897 18.6563 57.2619 19.2175C59.5212 19.7519 62.6889 21.5 62.6889 21.5V4.38149C62.6889 4.38149 61.019 2.09895 57.2619 1.33812C53.5048 0.577299 51 1.3382 51 1.3382Z" fill="white" stroke="white"/>
</g>
<defs>
<clipPath id="clip0_73_4">
<rect width="126" height="23" fill="white"/>
</clipPath>
</defs>
</svg>
