<svg width="134" height="30" viewBox="0 0 134 30" fill="none" xmlns="http://www.w3.org/2000/svg">
<path d="M0.792969 14.3511H48.3669" stroke="#C7A17A" stroke-width="0.975064" stroke-miterlimit="10" stroke-linecap="round"/>
<path d="M133.204 14.2881H85.6299" stroke="#C7A17A" stroke-width="0.975064" stroke-miterlimit="10" stroke-linecap="round"/>
<path d="M80 2.8382V20.3371C80 20.3371 76.1103 20.1563 73.7381 20.7175C71.4788 21.2519 68.3111 23 68.3111 23V5.88149C68.3111 5.88149 69.981 3.59895 73.7381 2.83812C77.4952 2.0773 80 2.8382 80 2.8382Z" fill="#C7A17A" stroke="#C7A17A"/>
<path d="M55 2.8382V20.3371C55 20.3371 58.8897 20.1563 61.2619 20.7175C63.5212 21.2519 66.6889 23 66.6889 23V5.88149C66.6889 5.88149 65.019 3.59895 61.2619 2.83812C57.5048 2.0773 55 2.8382 55 2.8382Z" fill="#C7A17A" stroke="#C7A17A"/>
</svg>
